HIERARCHY
ROOT Hips
{
	OFFSET 0.00000 0.00000 0.00000
	CHANNELS 6 Xposition Yposition Zposition Zrotation Yrotation Xrotation 
	JOINT LHipJoint
	{
		OFFSET 0 0 0
		CHANNELS 3 Zrotation Yrotation Xrotation
		JOINT LeftHip
		{
			OFFSET 1.64549 -1.70879 0.84566
			CHANNELS 3 Zrotation Yrotation Xrotation
			JOINT LeftKnee
			{
				OFFSET 2.24963 -6.18082 0.00000
				CHANNELS 3 Zrotation Yrotation Xrotation
				JOINT LeftAnkle
				{
					OFFSET 2.71775 -7.46697 0.00000
					CHANNELS 3 Zrotation Yrotation Xrotation
					JOINT LeftToe
					{
						OFFSET 0.18768 -0.51564 2.24737
						CHANNELS 3 Zrotation Yrotation Xrotation
						End Site
						{
							OFFSET 0.00000 -0.00000 1.15935
						}
					}
				}
			}
		}
	}
	JOINT RHipJoint
	{
		OFFSET 0 0 0
		CHANNELS 3 Zrotation Yrotation Xrotation
		JOINT RightHip
		{
			OFFSET -1.58830 -1.70879 0.84566
			CHANNELS 3 Zrotation Yrotation Xrotation
			JOINT RightKnee
			{
				OFFSET -2.25006 -6.18201 0.00000
				CHANNELS 3 Zrotation Yrotation Xrotation
				JOINT RightAnkle
				{
					OFFSET -2.72829 -7.49593 0.00000
					CHANNELS 3 Zrotation Yrotation Xrotation
					JOINT RightToe
					{
						OFFSET -0.21541 -0.59185 2.10643
						CHANNELS 3 Zrotation Yrotation Xrotation
						End Site
						{
							OFFSET -0.00000 -0.00000 1.09838
						}
					}
				}
			}
		}
	}
	JOINT lowerback
	{
		OFFSET 0 0 0
		CHANNELS 3 Zrotation Yrotation Xrotation
		JOINT Chest
		{
			OFFSET 0.03142 2.10496 -0.11038
			CHANNELS 3 Zrotation Yrotation Xrotation
			JOINT Chest2
			{
				OFFSET -0.01863 2.10897 -0.06956
				CHANNELS 3 Zrotation Yrotation Xrotation
				JOINT lowerneck
				{
					OFFSET 0 0 0
					CHANNELS 3 Zrotation Yrotation Xrotation
					JOINT Neck
					{
						OFFSET -0.02267 1.73238 0.00451
						CHANNELS 3 Zrotation Yrotation Xrotation
						JOINT Head
						{
							OFFSET -0.05808 1.54724 -0.61749
							CHANNELS 3 Zrotation Yrotation Xrotation
							End Site
							{
								OFFSET -0.01396 1.71468 -0.21082
							}
						}
					}
				}
				JOINT LeftCollar
				{
					OFFSET 0 0 0
					CHANNELS 3 Zrotation Yrotation Xrotation
					JOINT LeftShoulder
					{
						OFFSET 3.44898 0.50298 0.21920
CHANNELS 3 Zrotation Xrotation Yrotation
						JOINT LeftElbow
						{
OFFSET 0 -5.419170 -0.000000
CHANNELS 3 Zrotation Xrotation Yrotation
							JOINT LeftWrist
							{
OFFSET 0 -2.443730 0.000000
CHANNELS 3 Zrotation Xrotation Yrotation
								JOINT lhand
								{
									OFFSET 0 0 0
CHANNELS 3 Zrotation Xrotation Yrotation
									JOINT LFingers
									{
OFFSET 0 -0.727500 0.000000
CHANNELS 3 Zrotation Xrotation Yrotation
										End Site
										{
OFFSET 0 -0.586530 0.000000
										}
									}
								}
								JOINT LThumb
								{
OFFSET 0 0.000000 0.000000
CHANNELS 3 Zrotation Xrotation Yrotation
									End Site
									{
OFFSET 0 -0.595490 0.595490
									}
								}
							}
						}
					}
				}
				JOINT RightCollar
				{
					OFFSET 0 0 0
					CHANNELS 3 Zrotation Yrotation Xrotation
					JOINT RightShoulder
					{
						OFFSET -3.23015 0.55830 0.31051
CHANNELS 3 Zrotation Xrotation Yrotation
						JOINT RightElbow
						{
OFFSET 0 -5.589760 0.000140
CHANNELS 3 Zrotation Xrotation Yrotation
							JOINT RightWrist
							{
OFFSET 0 -2.480600 0.000000
CHANNELS 3 Zrotation Xrotation Yrotation
								JOINT rhand
								{
									OFFSET 0 0 0
CHANNELS 3 Zrotation Xrotation Yrotation
									JOINT RFingers
									{
OFFSET 0 -0.816010 0.000000
CHANNELS 3 Zrotation Xrotation Yrotation
										End Site
										{
OFFSET 0 -0.657890 0.000000
										}
									}
								}
								JOINT RThumb
								{
OFFSET 0 0.000000 0.000000
CHANNELS 3 Zrotation Xrotation Yrotation
									End Site
									{
OFFSET 0 -0.667930 0.667930
									}
								}
							}
						}
					}
				}
			}
		}
	}
}
MOTION
Frames: 9
Frame Time: 0.008333333333333333
-0.417055 19.628640 2.896160 -46.210317 49.684913 -28.939760 0.000000 0.000000 0.000000 8.546630 -25.932179 -11.240496 0.510204 4.562701 12.667993 -3.941132 35.920211 -7.211037 3.525534 11.368973 33.702550 0.000000 0.000000 0.000000 -52.274343 60.810707 -15.490211 -3.769929 -11.847728 35.195543 -17.599553 45.009495 -83.631379 -10.658895 -17.764087 61.668808 19.349571 3.131391 3.810365 10.995517 6.435924 -2.904548 0.686527 2.975269 -4.714193 10.692687 6.050615 -18.400972 -8.527133 9.267046 34.235048 -3.681976 4.375700 16.297904 0.000000 0.000000 0.000000 158.698443 -47.680098 60.530503 33.611567 -43.794279 13.843711 6.870892 39.232913 -16.461746 0.000000 0.000000 0.000000 -7.125000 0.000000 0.000000 -19.486880 45.603289 0.305501 0.000000 0.000000 0.000000 -162.765115 -59.860122 -88.391210 -60.588299 -56.463326 -34.831378 -4.830749 -61.944985 -19.707888 0.000000 0.000000 0.000000 7.125000 0.000000 0.000000 15.104538 10.721951 12.484524
-0.438535 20.104409 3.167700 -57.252614 52.050623 -36.391338 0.000000 0.000000 0.000000 14.902377 -30.844237 -12.230030 0.317984 3.620600 10.012149 2.433624 18.790500 -41.597251 6.454907 14.822655 46.721343 0.000000 0.000000 0.000000 -37.733961 59.735200 -4.076427 -3.648172 -11.676656 34.597802 -18.411491 45.606834 -85.809665 -10.660446 -17.764856 61.673800 21.641119 3.415547 1.164342 12.536285 6.855416 -4.538651 1.412771 3.179139 -5.088793 11.957270 6.499656 -17.737105 -9.831916 10.292530 34.650286 -4.290001 4.870213 16.701153 0.000000 0.000000 0.000000 160.801918 -44.687201 62.100392 34.465534 -44.425230 14.438481 5.865259 38.846493 -10.422853 0.000000 0.000000 0.000000 -7.125000 0.000000 0.000000 -18.457337 39.770782 -2.434775 0.000000 0.000000 0.000000 -160.716549 -56.266538 -86.538408 -61.741812 -56.756361 -35.794188 -5.805658 -64.749451 -18.811717 0.000000 0.000000 0.000000 7.125000 0.000000 0.000000 14.511249 11.525497 11.712889
-0.439594 20.531097 3.474606 -64.484796 56.189506 -42.234632 0.000000 0.000000 0.000000 14.304052 -29.932216 -13.459682 0.229975 3.085730 8.517604 4.076684 14.612417 -44.996276 6.869676 15.221190 48.379767 0.000000 0.000000 0.000000 -29.228913 54.747547 3.990663 -3.529434 -11.506292 34.007119 -17.581600 41.167309 -83.396561 -10.623255 -17.745737 61.551740 20.103089 3.547497 -0.696685 12.608011 6.868562 -5.919602 2.355904 3.231680 -5.721657 12.124274 7.388221 -17.436736 -9.441601 11.666219 34.948509 -3.848602 5.558607 16.992195 0.000000 0.000000 0.000000 161.696863 -40.717462 61.853655 36.458053 -45.824990 15.850413 5.200112 39.023492 -8.291074 0.000000 0.000000 0.000000 -7.125000 0.000000 0.000000 -18.371238 37.688541 -3.447302 0.000000 0.000000 0.000000 -159.148668 -52.536497 -86.086361 -61.205601 -56.622128 -35.346129 -7.209526 -67.813758 -17.552159 0.000000 0.000000 0.000000 7.125000 0.000000 0.000000 13.642393 12.657305 10.635692
-0.442677 20.933776 3.785982 -71.483236 59.780071 -48.610272 0.000000 0.000000 0.000000 12.062299 -26.545127 -14.656644 0.190750 2.812935 7.758382 4.341124 21.748457 -50.455468 6.672253 15.044843 47.615127 0.000000 0.000000 0.000000 -23.812202 49.518308 9.030561 -3.348914 -11.238885 33.090532 -16.520983 37.546429 -80.267639 -10.690537 -17.780278 61.772493 17.702274 3.941967 -2.036912 12.350400 7.210968 -6.714840 3.361004 3.519974 -5.968037 13.736310 8.109923 -15.856380 -11.697579 13.099543 32.850075 -4.787551 6.149450 16.165314 0.000000 0.000000 0.000000 162.896623 -37.110793 63.960977 36.990091 -46.162596 16.239163 6.490615 41.550505 -11.991139 0.000000 0.000000 0.000000 -7.125000 0.000000 0.000000 -18.349463 41.334856 -1.747355 0.000000 0.000000 0.000000 -157.845907 -47.853775 -85.917242 -59.572632 -56.192943 -33.986189 -8.710869 -70.829893 -15.911877 0.000000 0.000000 0.000000 7.125000 0.000000 0.000000 12.701671 14.165500 9.450478
-0.448222 21.305453 4.084380 -77.777599 62.649312 -54.602758 0.000000 0.000000 0.000000 8.745269 -22.661277 -15.988107 0.257467 3.262792 9.011502 6.139191 23.808050 -57.567649 5.829717 14.260164 44.292236 0.000000 0.000000 0.000000 -21.741328 43.139740 10.101541 -3.132095 -10.905671 31.962705 -15.109974 29.351361 -75.785486 -10.620083 -17.744100 61.541496 14.977323 4.603067 -3.079855 12.418768 7.968745 -7.024805 4.908481 4.095346 -5.942139 12.130354 9.400934 -15.919331 -11.667088 15.712648 32.502005 -3.886156 7.076214 16.308586 0.000000 0.000000 0.000000 161.185573 -32.778926 65.180743 38.055857 -46.874961 17.006406 9.951071 43.619877 -30.347808 0.000000 0.000000 0.000000 -7.125000 0.000000 0.000000 -24.403270 59.015158 8.784922 0.000000 0.000000 0.000000 -159.229176 -43.639071 -87.383944 -56.396304 -55.268435 -31.360955 -10.982222 -72.344932 -13.838004 0.000000 0.000000 0.000000 7.125000 0.000000 0.000000 11.230714 16.067780 7.839241
-0.440890 21.625332 4.374408 -84.471279 64.657588 -60.838535 0.000000 0.000000 0.000000 5.217920 -18.457093 -18.301978 0.486692 4.447111 12.342378 3.437179 29.195952 -53.450477 5.733960 14.164553 43.902615 0.000000 0.000000 0.000000 -20.194972 36.996898 9.808413 -2.919304 -10.562599 30.819251 -13.233326 20.648312 -69.875274 -10.745128 -17.807965 61.950942 12.679775 5.172486 -4.327556 11.990242 8.555267 -7.411811 5.752845 4.530510 -5.828538 15.242904 9.400046 -16.598806 -14.416188 15.710776 32.152915 -5.629612 7.137343 17.029719 0.000000 0.000000 0.000000 160.346263 -30.147257 67.564299 38.291332 -47.023934 17.178561 7.895233 41.849071 -7.088653 0.000000 0.000000 0.000000 -7.125000 0.000000 0.000000 -15.878550 36.714187 -3.346891 0.000000 0.000000 0.000000 -157.876378 -39.791591 -87.158488 -55.876306 -55.105082 -30.933968 -15.107309 -75.903156 -13.761119 0.000000 0.000000 0.000000 7.125000 0.000000 0.000000 8.419840 15.843478 5.862618
-0.412387 21.909999 4.648325 -92.713024 65.147779 -68.149689 0.000000 0.000000 0.000000 2.941615 -13.985623 -21.346454 0.851765 5.872032 16.417529 -0.780193 35.194566 -46.003880 5.817477 14.248284 44.243219 0.000000 0.000000 0.000000 -15.906289 33.470858 10.629876 -2.755874 -10.288628 29.916755 -12.164438 14.547721 -66.569266 -10.588571 -17.727739 61.438125 11.530114 5.903871 -6.198737 11.810613 9.384990 -7.943514 6.376155 5.087309 -5.510726 17.435765 9.341760 -18.134686 -15.843084 15.608910 33.348639 -6.785216 7.220183 18.545464 0.000000 0.000000 0.000000 159.819407 -29.078274 70.967080 37.220400 -46.332304 16.399912 8.834789 42.900018 -12.007804 0.000000 0.000000 0.000000 -7.125000 0.000000 0.000000 -16.331249 41.550532 -1.416956 0.000000 0.000000 0.000000 -156.623939 -36.369589 -87.274835 -54.387709 -54.617798 -29.716330 -17.410229 -79.711364 -14.433050 0.000000 0.000000 0.000000 7.125000 0.000000 0.000000 6.855940 14.958396 4.888286
-0.369456 22.184391 4.900216 -102.113983 64.547245 -76.468508 0.000000 0.000000 0.000000 1.623725 -11.237721 -23.968105 1.311788 7.242690 20.441773 -7.236626 43.452015 -33.154738 4.515768 12.803933 38.659438 0.000000 0.000000 0.000000 -11.187392 29.215299 10.267775 -2.670971 -10.142356 29.438976 -10.805336 6.109208 -62.808592 -10.535925 -17.700409 61.264964 11.153278 6.321940 -8.181577 11.664854 9.849251 -8.637473 6.662484 5.435768 -5.246380 18.801917 9.364392 -20.548759 -15.735342 15.473823 35.853027 -7.429617 7.519986 21.534275 0.000000 0.000000 0.000000 158.580289 -28.618735 73.480592 36.501445 -45.850921 15.882599 11.441091 41.457629 -9.780453 0.000000 0.000000 0.000000 -7.125000 0.000000 0.000000 -13.523851 39.594253 -1.830283 0.000000 0.000000 0.000000 -155.460548 -33.811860 -88.158882 -52.680731 -54.018571 -28.330157 -17.701392 -82.816458 -15.572340 0.000000 0.000000 0.000000 7.125000 0.000000 0.000000 6.687640 13.753699 4.940298
-0.329079 22.439379 5.170740 -111.408840 62.338574 -84.785958 0.000000 0.000000 0.000000 1.653668 -9.272659 -25.836166 1.805616 8.439382 24.062662 -9.783550 46.495314 -22.638537 4.154913 12.360812 37.024969 0.000000 0.000000 0.000000 -4.977820 25.358607 9.509438 -2.659070 -10.121496 29.371225 -9.289203 -2.350335 -59.210459 -10.446335 -17.653203 60.969901 11.493053 6.416536 -10.077515 11.715450 9.902333 -9.280761 6.775950 5.564314 -4.925797 18.808627 9.170349 -21.338984 -14.560999 15.202159 37.864563 -7.061782 7.696998 23.068319 0.000000 0.000000 0.000000 158.148711 -27.557674 75.474280 34.321349 -44.312510 14.340148 14.997690 40.717604 -8.329059 0.000000 0.000000 0.000000 -7.125000 0.000000 0.000000 -10.207459 38.407284 -1.672010 0.000000 0.000000 0.000000 -154.914428 -32.436022 -90.238967 -50.988525 -53.384829 -26.966022 -17.607772 -82.752302 -15.641553 0.000000 0.000000 0.000000 7.125000 0.000000 0.000000 6.752697 13.691608 4.997838
